<svg width="68" height="57" viewBox="0 0 68 57" fill="none" xmlns="http://www.w3.org/2000/svg">
<path d="M50.4255 17.197C48.2873 17.1968 46.1603 17.5048 44.1101 18.1115C46.399 22.3285 47.2637 27.1723 46.5752 31.9207C45.8867 36.6692 43.6819 41.0679 40.2896 44.4611L28.1759 56.5748H45.3084C48.2299 56.5749 51.1228 55.9995 53.822 54.8815C56.5211 53.7635 58.9737 52.1249 61.0395 50.0591C63.1054 47.9932 64.7441 45.5408 65.8621 42.8416C66.9802 40.1425 67.5556 37.2496 67.5556 34.328V17.197H50.4255Z" fill="#009959"/>
<path d="M16.0625 13.0002L28.1735 0.889214L40.2845 13.0002C44.456 17.1717 46.7995 22.8294 46.7995 28.7287C46.7995 34.628 44.456 40.2857 40.2845 44.4572L28.1732 56.5685L16.0622 44.4575C11.8906 40.286 9.54709 34.6281 9.54709 28.7287C9.54709 22.8293 11.8906 17.1714 16.0622 12.9999L16.0625 13.0002Z" fill="#6EBD6A"/>
<path d="M37.8314 32.0115L32.7702 34.0312C31.2582 34.6328 29.9483 35.6519 28.9936 36.9697V32.9233C28.9888 31.5302 29.4042 30.168 30.1854 29.0146C30.9667 27.8612 32.0776 26.9702 33.3731 26.4578L38.4338 24.4381C38.6347 24.3578 38.7954 24.201 38.8807 24.0022C38.9659 23.8033 38.9687 23.5788 38.8883 23.3779C38.808 23.1771 38.6512 23.0164 38.4524 22.9311C38.2536 22.8459 38.029 22.8431 37.8282 22.9234L32.7702 24.9408C31.2581 25.5422 29.9482 26.5614 28.9936 27.8793V23.8306C28.9887 22.4374 29.404 21.0752 30.1853 19.9218C30.9666 18.7684 32.0776 17.8774 33.3731 17.3651C33.574 17.2848 33.7347 17.128 33.8199 16.9292C33.9052 16.7303 33.9079 16.5058 33.8276 16.3049C33.7473 16.1041 33.5905 15.9434 33.3917 15.8581C33.1928 15.7729 32.9683 15.7701 32.7674 15.8505C31.2551 16.4518 29.9451 17.471 28.9903 18.7889V9.66129C28.9903 9.55422 28.9692 9.44819 28.9282 9.34927C28.8873 9.25035 28.8272 9.16047 28.7515 9.08476C28.6758 9.00904 28.5859 8.94899 28.487 8.90801C28.388 8.86704 28.282 8.84595 28.1749 8.84595C28.0679 8.84595 27.9619 8.86704 27.8629 8.90801C27.764 8.94899 27.6741 9.00904 27.5984 9.08476C27.5227 9.16047 27.4626 9.25035 27.4217 9.34927C27.3807 9.44819 27.3596 9.55422 27.3596 9.66129V18.7889C26.4051 17.4708 25.0952 16.4516 23.5829 15.8505C23.3821 15.7701 23.1575 15.7729 22.9587 15.8581C22.7599 15.9434 22.6031 16.1041 22.5228 16.3049C22.4424 16.5058 22.4452 16.7303 22.5304 16.9292C22.6157 17.128 22.7764 17.2848 22.9772 17.3651C24.2728 17.8774 25.3837 18.7684 26.165 19.9218C26.9463 21.0753 27.3616 22.4375 27.3568 23.8306V27.8793C26.4023 26.5612 25.0924 25.542 23.5801 24.9408L18.5255 22.9211C18.3246 22.8408 18.1001 22.8436 17.9012 22.9288C17.7024 23.014 17.5456 23.1748 17.4653 23.3756C17.385 23.5765 17.3877 23.801 17.473 23.9998C17.5582 24.1987 17.7189 24.3555 17.9198 24.4358L22.9819 26.4555C24.278 26.9678 25.3895 27.8591 26.1711 29.0129C26.9526 30.1668 27.368 31.5296 27.3629 32.9233V36.9721C26.4082 35.6542 25.0983 34.635 23.5862 34.0336L18.5255 32.0115C18.426 31.9717 18.3197 31.9519 18.2126 31.9533C18.1055 31.9546 17.9997 31.977 17.9012 32.0192C17.8028 32.0614 17.7136 32.1226 17.6388 32.1992C17.564 32.2759 17.5051 32.3665 17.4653 32.466C17.4255 32.5655 17.4057 32.6718 17.407 32.7789C17.4084 32.886 17.4308 32.9918 17.473 33.0902C17.5152 33.1887 17.5764 33.2778 17.653 33.3526C17.7297 33.4274 17.8203 33.4864 17.9198 33.5262L22.9819 35.5459C24.2774 36.0582 25.3883 36.9493 26.1696 38.1027C26.9509 39.2561 27.3662 40.6182 27.3615 42.0113V46.9384C27.3615 47.1546 27.4474 47.362 27.6003 47.5149C27.7532 47.6678 27.9606 47.7537 28.1768 47.7537C28.3931 47.7537 28.6004 47.6678 28.7533 47.5149C28.9063 47.362 28.9922 47.1546 28.9922 46.9384V42.0113C28.9874 40.6182 29.4028 39.2561 30.184 38.1027C30.9653 36.9493 32.0762 36.0582 33.3717 35.5459L38.4324 33.5262C38.5319 33.4864 38.6225 33.4274 38.6992 33.3526C38.7759 33.2778 38.8371 33.1887 38.8793 33.0902C38.9215 32.9918 38.9439 32.886 38.9452 32.7789C38.9465 32.6718 38.9267 32.5655 38.8869 32.466C38.8472 32.3665 38.7882 32.2759 38.7134 32.1992C38.6386 32.1226 38.5494 32.0614 38.451 32.0192C38.3525 31.977 38.2467 31.9546 38.1396 31.9533C38.0325 31.9519 37.9262 31.9717 37.8268 32.0115H37.8314Z" fill="#009959"/>
<path d="M61.9274 22.8251C61.7744 22.6723 61.567 22.5865 61.3508 22.5865C61.1346 22.5865 60.9272 22.6723 60.7742 22.8251L54.32 29.2799C54.5768 27.6727 54.3712 26.0256 53.7273 24.5308C53.642 24.3321 53.4812 24.1753 53.2803 24.0951C53.0795 24.0149 52.855 24.0178 52.6562 24.1031C52.4574 24.1884 52.3007 24.3492 52.2205 24.5501C52.1403 24.751 52.1432 24.9755 52.2285 25.1743C52.7828 26.4527 52.9387 27.8685 52.6758 29.2369C52.4129 30.6053 51.7434 31.8626 50.7548 32.8445L48.0213 35.579C47.9457 35.6547 47.8857 35.7447 47.8448 35.8436C47.8039 35.9426 47.7829 36.0487 47.783 36.1557C47.783 36.2628 47.8042 36.3688 47.8453 36.4677C47.8863 36.5666 47.9465 36.6564 48.0222 36.7321C48.098 36.8078 48.188 36.8677 48.2869 36.9086C48.3859 36.9495 48.4919 36.9705 48.599 36.9705C48.7061 36.9704 48.8121 36.9492 48.911 36.9081C49.0099 36.8671 49.0997 36.8069 49.1754 36.7312L51.9112 33.9949C52.8933 33.0076 54.15 32.3392 55.5176 32.0769C56.8852 31.8145 58.3001 31.9703 59.5778 32.524C59.6762 32.5667 59.7822 32.5896 59.8895 32.5913C59.9968 32.593 60.1034 32.5735 60.2032 32.5339C60.3029 32.4943 60.3939 32.4354 60.4709 32.3605C60.5478 32.2857 60.6092 32.1964 60.6516 32.0978C60.6939 31.9991 60.7164 31.8931 60.7177 31.7858C60.7189 31.6785 60.699 31.5719 60.659 31.4723C60.619 31.3727 60.5598 31.282 60.4846 31.2053C60.4095 31.1287 60.32 31.0676 60.2212 31.0256C58.7268 30.3814 57.08 30.1759 55.4731 30.433L61.9274 23.9778C62.08 23.8248 62.1658 23.6176 62.1658 23.4015C62.1658 23.1854 62.08 22.9781 61.9274 22.8251Z" fill="#6EBD6A"/>
</svg>
